<svg version="1.1" id="Layer_1" xmlns="http://www.w3.org/2000/svg" xmlns:xlink="http://www.w3.org/1999/xlink" x="0px" y="0px" viewBox="0 0 48 48" enable-background="new 0 0 48 48" xml:space="preserve" focusable="false" aria-hidden="true" role="none" class="room-accomodation-svg-inject Icon-img ng-isolate-scope  replaced-svg" data-url="/assets/hotel/default/media/iconography/icon/heater_and_air_conditioner.svg"><g><path d="M43,25.7H5c-2.8,0-5-2.2-5-5v-9.9c0-2.8,2.2-5,5-5h38c2.8,0,5,2.2,5,5v9.9C48,23.5,45.8,25.7,43,25.7z M5,7.8
		c-1.7,0-3,1.3-3,3v9.9c0,1.7,1.3,3,3,3h38c1.7,0,3-1.3,3-3v-9.9c0-1.7-1.3-3-3-3H5z"></path><rect x="1.5" y="15.9" width="45.5" height="2"></rect><rect x="32.1" y="19.5" width="3.1" height="2"></rect><rect x="37.1" y="19.5" width="3.1" height="2"></rect><path d="M9.7,41.8c-1.1-1.4-2.5-4.6-0.1-7.2c0.4-0.4,0.8-1,0.7-1.5c-0.1-0.6-0.9-1.1-0.9-1.1l0.9-1.8c0.2,0.1,1.7,0.9,1.9,2.5
		c0.2,1.1-0.2,2.1-1.2,3.2c-1.8,2,0.2,4.6,0.3,4.6L9.7,41.8z"></path><path d="M18.8,41.8c-1.1-1.4-2.5-4.6-0.1-7.2c0.4-0.4,0.8-0.9,0.7-1.5c-0.1-0.5-0.7-1-0.9-1.1l0.9-1.8c0.2,0.1,1.7,0.9,1.9,2.5
		c0.2,1.1-0.2,2.1-1.2,3.2c-1.8,2,0.2,4.6,0.3,4.6L18.8,41.8z"></path><path d="M28,41.8c-1.1-1.4-2.5-4.6-0.2-7.2c0.4-0.4,0.8-1,0.7-1.5c-0.1-0.6-0.9-1.1-0.9-1.1l0.9-1.8c0.2,0.1,1.7,0.9,1.9,2.5
		c0.2,1.1-0.2,2.1-1.2,3.2c-1.8,1.9,0.2,4.5,0.3,4.6L28,41.8z"></path><path d="M37.1,41.8c-1.1-1.4-2.5-4.6-0.1-7.2c0.4-0.4,0.8-0.9,0.7-1.5c-0.1-0.5-0.7-1-0.9-1.1l0.9-1.8c0.2,0.1,1.7,0.9,1.9,2.5
		c0.2,1.1-0.2,2.1-1.2,3.2c-1.8,2,0.2,4.6,0.3,4.6L37.1,41.8z"></path></g></svg>