<svg version="1.1" id="Layer_1" xmlns="http://www.w3.org/2000/svg" xmlns:xlink="http://www.w3.org/1999/xlink" x="0px" y="0px" viewBox="0 0 48 48" enable-background="new 0 0 48 48" xml:space="preserve" focusable="false" aria-hidden="true" role="none" class="room-accomodation-svg-inject Icon-img ng-isolate-scope  replaced-svg" data-url="/assets/hotel/default/media/iconography/icon/directv.svg"><g><g><path d="M26.4,48H4.8c-0.4,0-0.8-0.2-0.9-0.6s-0.1-0.8,0.2-1.1l10.8-10.8c0.4-0.4,1-0.4,1.4,0l10.8,10.8c0.3,0.3,0.4,0.7,0.2,1.1
			C27.2,47.8,26.8,48,26.4,48z M7.2,46H24l-8.4-8.4L7.2,46z"></path><path d="M32.6,37.2H7.2c-0.6,0-1-0.4-1-1V10.7c0-0.4,0.2-0.8,0.6-0.9C7.2,9.6,7.6,9.7,7.9,10l25.4,25.5c0.3,0.3,0.4,0.7,0.2,1.1
			C33.4,37,33,37.2,32.6,37.2z M8.2,35.2h22l-22-22.1V35.2z"></path><path d="M23.5,27.9c-0.2,0-0.3,0-0.5-0.1c-0.5-0.3-0.7-0.9-0.4-1.3l5.8-11.2L17.2,21c-0.5,0.3-1.1,0.1-1.3-0.4
			c-0.3-0.5-0.1-1.1,0.4-1.3l14-7.2c0.4-0.2,0.9-0.1,1.2,0.2c0.3,0.3,0.4,0.8,0.2,1.2l-7.2,14C24.2,27.7,23.9,27.9,23.5,27.9z"></path><path d="M33.1,13c0,1.4-1.1,2.5-2.5,2.5s-2.5-1.1-2.5-2.5s1.1-2.5,2.5-2.5C32,10.5,33.1,11.6,33.1,13z"></path></g><g><path d="M43.2,15.1c-0.6,0-1-0.4-1-1C42.2,7.4,36.8,2,30.1,2c-0.6,0-1-0.4-1-1s0.4-1,1-1c7.8,0,14.1,6.3,14.1,14.1
			C44.2,14.7,43.8,15.1,43.2,15.1z"></path><path d="M38.8,14.8c-0.6,0-1-0.4-1-1c0-4.1-3.4-7.5-7.5-7.5c-0.6,0-1-0.4-1-1s0.4-1,1-1c5.2,0,9.5,4.3,9.5,9.5
			C39.8,14.4,39.4,14.8,38.8,14.8z"></path></g></g></svg>