<svg version="1.1" id="Layer_1" xmlns="http://www.w3.org/2000/svg" xmlns:xlink="http://www.w3.org/1999/xlink" x="0px" y="0px" viewBox="0 0 48 48" enable-background="new 0 0 48 48" xml:space="preserve" focusable="false" aria-hidden="true" role="none" class="room-accomodation-svg-inject Icon-img ng-isolate-scope  replaced-svg" data-url="/assets/hotel/default/media/iconography/icon/nespresso_machine.svg"><g><circle cx="24.001" cy="13.523" r="1.97"></circle><path d="M43.9,48H4.101c-0.552,0-1-0.447-1-1V12.691c0-0.552,0.448-1,1-1h7.545c0.552,0,1,0.448,1,1s-0.448,1-1,1H5.101V46H42.9
		V13.691h-6.67c-0.553,0-1-0.448-1-1s0.447-1,1-1h7.67c0.553,0,1,0.448,1,1V47C44.9,47.553,44.453,48,43.9,48z"></path><path d="M36.064,28.244H11.936c-0.552,0-1-0.447-1-1V10.949C10.936,4.912,16.539,0,23.426,0h1.148
		c6.887,0,12.49,4.912,12.49,10.949v16.295C37.064,27.797,36.617,28.244,36.064,28.244z M12.936,26.244h22.128V10.949
		C35.064,6.015,30.358,2,24.574,2h-1.148c-5.784,0-10.49,4.015-10.49,8.949V26.244z"></path><path d="M46.885,48H1.115c-0.552,0-1-0.447-1-1s0.448-1,1-1h45.77c0.553,0,1,0.447,1,1S47.438,48,46.885,48z"></path><path d="M24.125,31.459c-0.552,0-1-0.447-1-1v-2.736c0-0.553,0.448-1,1-1c0.553,0,1,0.447,1,1v2.736
		C25.125,31.012,24.678,31.459,24.125,31.459z"></path><g><path d="M24.455,48.001H23.23c-5.354,0-9.711-3.237-9.711-7.217v-5.226c0-0.553,0.448-1,1-1h18.645c0.553,0,1,0.447,1,1v5.226
			C34.164,44.764,29.809,48.001,24.455,48.001z M15.519,36.559v4.226c0,2.828,3.531,5.217,7.711,5.217h1.225
			c4.179,0,7.709-2.389,7.709-5.217v-4.226H15.519z"></path><path d="M33.502,43.41c-0.549,0-0.996-0.443-1-0.993c-0.004-0.552,0.44-1.003,0.993-1.007c1.635-0.012,2.966-1.024,2.966-2.258
			s-1.331-2.246-2.966-2.258c-0.553-0.004-0.997-0.455-0.993-1.007c0.004-0.55,0.451-0.993,1-0.993c0.002,0,0.005,0,0.007,0
			c2.73,0.02,4.952,1.93,4.952,4.258s-2.222,4.238-4.952,4.258C33.507,43.41,33.504,43.41,33.502,43.41z"></path></g></g></svg>