<svg version="1.1" id="Layer_1" xmlns="http://www.w3.org/2000/svg" xmlns:xlink="http://www.w3.org/1999/xlink" x="0px" y="0px" viewBox="0 0 48 48" enable-background="new 0 0 48 48" xml:space="preserve" focusable="false" aria-hidden="true" role="none" class="room-accomodation-svg-inject Icon-img ng-isolate-scope  replaced-svg" data-url="/assets/hotel/default/media/iconography/icon/blow_dryer.svg"><g><path fill="currentColor" d="M31.6,19.5C31.6,19.5,31.5,19.5,31.6,19.5L0.9,17.1c-0.5,0-0.9-0.5-0.9-1V5.7c0-0.5,0.4-0.9,0.9-1l30.6-4
		c0.3,0,0.6,0.1,0.8,0.2c0.2,0.2,0.3,0.5,0.3,0.8v16.8c0,0.3-0.1,0.5-0.3,0.7C32.1,19.4,31.9,19.5,31.6,19.5z M2,15.2l28.6,2.2V2.8
		L2,6.6V15.2z"></path><path fill="currentColor" d="M38.1,20.3c-1,0-2.1-0.2-3.2-0.6c-0.4-0.1-0.7-0.5-0.7-0.9V1.5c0-0.4,0.3-0.8,0.7-0.9
		c6.9-2.3,13.1,3,13.1,9.6C48,15.8,43.6,20.3,38.1,20.3z M36.2,18.1c0.7,0.2,1.3,0.2,1.9,0.2c4.4,0,7.9-3.6,7.9-8.1
		C46,5.7,42.5,2,38.1,2c-0.6,0-1.2,0.1-1.9,0.2V18.1z"></path><path fill="currentColor" d="M26.2,42.8L26.2,42.8c-3.5,0-7-3.3-7.1-3.5C18.7,39,18.7,38.4,19,38c3.8-5.1,3.7-16.6,3.7-16.7
		c0-0.3,0.1-0.6,0.3-0.8c0.2-0.2,0.5-0.3,0.8-0.3l8.8,1c0.5,0.1,0.9,0.5,0.9,1c-0.5,9.4-4.4,19-4.6,19.4c-0.1,0.2-0.3,0.4-0.5,0.5
		C27.8,42.6,27,42.8,26.2,42.8z M21.1,38.4c1,0.8,3.1,2.3,5.1,2.3c0,0,0,0,0,0c0.4,0,0.7,0,1-0.2c0.7-1.8,3.6-9.7,4.2-17.4l-6.7-0.8
		C24.6,25.4,24.2,33.6,21.1,38.4z"></path><path fill="currentColor" d="M26.1,48c-0.9,0-1.7-0.2-2.4-0.7c-1.8-1.3-2.2-3.7-1.1-6.4l1.9,0.8c-0.8,1.9-0.6,3.3,0.4,4
		c1,0.7,2.5,0.4,3.5-0.5l0.4-0.4c0.9-0.8,1.6-1.4,2.2-2.5c0.1-0.2,0.2-0.4,0.3-0.7c0.6-1.2,1.2-2.6,2.3-3.3c1.5-1,4.3-1,5.7-0.7
		c1.3,0.2,3.1,1.2,4.1,2.6l-1.7,1.1c-0.6-0.9-1.9-1.6-2.8-1.8c-1.3-0.3-3.4-0.1-4.3,0.4c-0.7,0.4-1.2,1.5-1.6,2.4
		c-0.1,0.3-0.2,0.5-0.4,0.8c-0.8,1.4-1.7,2.2-2.6,3l-0.4,0.4C28.7,47.5,27.4,48,26.1,48z"></path><rect x="8.1" y="5.2" fill="currentColor" width="2" height="11"></rect></g></svg>