<svg version="1.1" id="Layer_1" xmlns="http://www.w3.org/2000/svg" xmlns:xlink="http://www.w3.org/1999/xlink" x="0px" y="0px" viewBox="0 0 48 48" enable-background="new 0 0 48 48" xml:space="preserve" focusable="false" aria-hidden="true" role="none" class="room-accomodation-svg-inject Icon-img ng-isolate-scope  replaced-svg" data-url="/assets/hotel/default/media/iconography/icon/wifi_3.svg"><g><g><path d="M38.7,32.7H9.4c-2.7,0-4.9-2.2-4.9-4.9V4.9C4.5,2.2,6.7,0,9.4,0h29.3c2.7,0,4.9,2.2,4.9,4.9v22.8
			C43.6,30.5,41.4,32.7,38.7,32.7z M9.4,2C7.8,2,6.5,3.3,6.5,4.9v22.9c0,1.6,1.3,2.9,2.9,2.9h29.3c1.6,0,2.9-1.3,2.9-3V4.9
			c0-1.6-1.3-2.9-2.9-2.9H9.4z"></path><path d="M45.3,48H2.6c-0.9,0-1.6-0.4-2.1-1.1c-0.6-0.9-0.7-2.2-0.3-3.5l3.5-9.9c0.5-1.6,2.1-2.8,3.6-2.8h33.2
			c1.6,0,3.1,1.2,3.6,2.8l3.4,9.9c0.5,1.2,0.4,2.5-0.2,3.4C47,47.6,46.2,48,45.3,48z M7.4,32.8c-0.6,0-1.5,0.6-1.8,1.4l-3.5,9.9
			c-0.3,0.8-0.2,1.4,0,1.7C2.2,45.9,2.3,46,2.6,46h42.7c0.2,0,0.4-0.1,0.5-0.3c0.2-0.3,0.3-0.8,0-1.6l-3.4-10
			c-0.3-0.9-1.1-1.4-1.8-1.4H7.4z"></path></g><g><path d="M21,21.5l-1.4-1.4c2.5-2.4,6.4-2.4,8.8,0L27,21.5C25.4,19.9,22.7,19.9,21,21.5z"></path><path d="M17.6,18.2l-1.4-1.4c2.1-2.1,4.8-3.2,7.8-3.2c3,0,5.7,1.1,7.8,3.2l-1.4,1.4c-1.7-1.7-4-2.6-6.4-2.6
			C21.6,15.6,19.3,16.5,17.6,18.2z"></path><path d="M33.5,15c-5.2-5.2-13.8-5.2-19,0l-1.4-1.4c6-6,15.8-6,21.8,0L33.5,15z"></path><circle cx="24" cy="23.1" r="0.9"></circle></g></g></svg>