<svg version="1.1" id="Layer_1" xmlns="http://www.w3.org/2000/svg" xmlns:xlink="http://www.w3.org/1999/xlink" x="0px" y="0px" viewBox="0 0 48 48" enable-background="new 0 0 48 48" xml:space="preserve" focusable="false" aria-hidden="true" role="none" class="room-accomodation-svg-inject Icon-img ng-isolate-scope  replaced-svg" data-url="/assets/hotel/default/media/iconography/icon/mini_bar_option_2.svg"><g><path fill="currentColor" d="M41.7,48H6.3C2.8,48,0,45.2,0,41.7V6.3C0,2.8,2.8,0,6.3,0h35.5C45.2,0,48,2.9,48,6.3v35.5
		C48,45.2,45.1,48,41.7,48z M6.3,2C4,2,2,4,2,6.3v35.4C2,44,4,46,6.3,46h35.4c2.3,0,4.3-1.9,4.3-4.2V6.3C46,4,44.1,2,41.8,2H6.3z"></path><rect x="1" y="23" fill="currentColor" width="46" height="2"></rect><g><g><path fill="currentColor" d="M12.4,22.5H8.2c-1,0-1.9-0.9-1.9-1.9v-6.9c0-2,1.7-3.7,3.7-3.7h0.5c2,0,3.7,1.6,3.8,3.6l0,7
				C14.3,21.6,13.4,22.5,12.4,22.5z M8.3,20.5h4v-6.8c-0.1-0.9-0.9-1.7-1.8-1.7H10c-1,0-1.7,0.7-1.7,1.7V20.5z"></path><rect x="9.2" y="4.1" fill="currentColor" width="2" height="7.2"></rect></g><g><path fill="currentColor" d="M22.7,22.5h-4.2c-1,0-1.9-0.9-1.9-1.9v-6.9c0-2,1.7-3.7,3.7-3.7h0.6c2,0,3.7,1.7,3.7,3.7v6.9
				C24.6,21.6,23.7,22.5,22.7,22.5z M18.6,20.5h4v-6.8c0-1-0.7-1.7-1.7-1.7h-0.6c-1,0-1.7,0.7-1.7,1.7V20.5z"></path><rect x="19.6" y="4.1" fill="currentColor" width="2" height="7.2"></rect></g><g><path fill="currentColor" d="M33,22.5h-4.2c-1,0-1.9-0.9-1.9-1.9v-6.9c0-2,1.7-3.7,3.7-3.7h0.6c2,0,3.7,1.7,3.7,3.7v6.9
				C34.9,21.6,34,22.5,33,22.5z M28.9,20.5h4v-6.8c0-1-0.7-1.7-1.7-1.7h-0.6c-1,0-1.7,0.7-1.7,1.7V20.5z"></path><rect x="29.9" y="4.1" fill="currentColor" width="2" height="7.2"></rect></g></g><g><g><path fill="currentColor" d="M11.2,45.5H7c-1,0-1.9-0.9-1.9-1.9v-6.9c0-2,1.7-3.7,3.7-3.7h0.5c2,0,3.7,1.6,3.8,3.6l0,7
				C13.1,44.6,12.2,45.5,11.2,45.5z M7.1,43.5h4v-6.8C11,35.8,10.2,35,9.3,35H8.8c-1,0-1.7,0.7-1.7,1.7V43.5z"></path><rect x="8.1" y="27.1" fill="currentColor" width="2" height="7.2"></rect></g><g><path fill="currentColor" d="M21.1,45.5h-4.2c-1,0-1.9-0.9-1.9-1.9v-6.9c0-2,1.7-3.7,3.7-3.7h0.6c2,0,3.7,1.7,3.7,3.7v6.9
				C23,44.6,22.1,45.5,21.1,45.5z M17,43.5h4v-6.8c0-1-0.7-1.7-1.7-1.7h-0.6c-1,0-1.7,0.7-1.7,1.7V43.5z"></path><rect x="18" y="27.1" fill="currentColor" width="2" height="7.2"></rect></g><g><path fill="currentColor" d="M31.1,45.5h-4.2c-1,0-1.9-0.9-1.9-1.9v-6.9c0-2,1.7-3.7,3.7-3.7h0.6c2,0,3.7,1.7,3.7,3.7v6.9
				C33,44.6,32.1,45.5,31.1,45.5z M27,43.5h4v-6.8c0-0.9-0.8-1.7-1.7-1.7h-0.6c-1,0-1.7,0.7-1.7,1.7V43.5z"></path><rect x="28" y="27.1" fill="currentColor" width="2" height="7.2"></rect></g><g><path fill="currentColor" d="M41,45.5h-4.2c-1,0-1.9-0.9-1.9-1.9v-6.9c0-2,1.7-3.7,3.7-3.7h0.6c2,0,3.7,1.7,3.7,3.7v6.9
				C42.9,44.6,42,45.5,41,45.5z M36.9,43.5h4v-6.8c0-1-0.7-1.7-1.7-1.7h-0.6c-1,0-1.7,0.7-1.7,1.7V43.5z"></path><rect x="37.9" y="27.1" fill="currentColor" width="2" height="7.2"></rect></g></g></g></svg>