<svg version="1.1" id="Layer_1" xmlns="http://www.w3.org/2000/svg" xmlns:xlink="http://www.w3.org/1999/xlink" x="0px" y="0px" viewBox="0 0 48 48" enable-background="new 0 0 48 48" xml:space="preserve" focusable="false" aria-hidden="true" role="none" class="room-accomodation-svg-inject Icon-img ng-isolate-scope  replaced-svg" data-url="/assets/hotel/default/media/iconography/icon/newspaper.svg"><g><path d="M48,48H0V0h48V48z M2,46h44V2H2V46z"></path><g><path d="M9.7,16.1V8h1.1l2.6,4.1c0.6,0.9,1.1,1.8,1.5,2.6l0,0c-0.1-1.1-0.1-2.1-0.1-3.3V8h1v8.1h-1.1L12.2,12
			c-0.6-0.9-1.1-1.8-1.5-2.7l0,0c0.1,1,0.1,2,0.1,3.3v3.5H9.7z"></path><path d="M21.8,12.3h-3.1v2.9h3.5v0.9h-4.5V8H22v0.9h-3.3v2.6h3.1C21.8,11.5,21.8,12.3,21.8,12.3z"></path><path d="M25,16.1L22.9,8H24l1,4.1c0.2,1,0.5,2,0.6,2.8l0,0c0.1-0.8,0.4-1.8,0.7-2.8l1-4.1h1.1l1,4.1c0.2,1,0.4,1.9,0.6,2.8l0,0
			c0.2-0.9,0.4-1.8,0.6-2.8L31.7,8h1.1l-2.3,8.1h-1.1l-1-4.2c-0.3-1-0.4-1.8-0.5-2.6l0,0c-0.1,0.8-0.3,1.6-0.6,2.6L26,16.1H25z"></path><path d="M33.6,14.8c0.5,0.3,1.2,0.5,1.9,0.5c1.1,0,1.7-0.6,1.7-1.4c0-0.8-0.4-1.2-1.5-1.6c-1.3-0.5-2.1-1.2-2.1-2.3
			c0-1.3,1-2.2,2.6-2.2C37,7.8,37.6,8,38,8.2l-0.3,0.9c-0.3-0.1-0.8-0.4-1.5-0.4c-1.1,0-1.5,0.7-1.5,1.2c0,0.8,0.5,1.1,1.6,1.6
			c1.4,0.5,2.1,1.2,2.1,2.4s-0.9,2.3-2.8,2.3c-0.8,0-1.6-0.2-2.1-0.5L33.6,14.8z"></path></g><rect x="5.1" y="21" width="37.8" height="2"></rect><rect x="5.1" y="25.9" width="37.8" height="2"></rect><rect x="5.1" y="30.5" width="16.3" height="2"></rect><rect x="26.6" y="30.5" width="16.3" height="2"></rect><rect x="5.1" y="35.1" width="16.3" height="2"></rect><rect x="26.6" y="35.1" width="16.3" height="2"></rect><rect x="5.1" y="39.7" width="16.3" height="2"></rect><rect x="26.6" y="39.7" width="16.3" height="2"></rect></g></svg>