<svg version="1.1" id="Layer_1" xmlns="http://www.w3.org/2000/svg" xmlns:xlink="http://www.w3.org/1999/xlink" x="0px" y="0px" viewBox="0 0 48 48" enable-background="new 0 0 48 48" xml:space="preserve" focusable="false" aria-hidden="true" role="none" class="room-accomodation-svg-inject Icon-img ng-isolate-scope  replaced-svg" data-url="/assets/hotel/default/media/iconography/icon/universal_electric_outlet.svg"><g><path d="M25.3,47.7c-10.5,0-19.7-7.4-21.9-17.5l2-0.4c2,9.2,10.4,15.9,19.9,15.9c11.2,0,20.4-9,20.4-20.1
		c0-11.1-9.2-20.1-20.4-20.1c-4.2,0-8.2,1.3-11.6,3.6l-1.1-1.6c3.8-2.6,8.2-4,12.8-4c12.4,0,22.4,9.9,22.4,22.1
		C47.7,37.8,37.7,47.7,25.3,47.7z"></path><path d="M25.3,47.7c-5.9,0-11-6.1-12.9-15.3l2-0.4c1.6,8.1,6.1,13.7,10.9,13.7c6.2,0,11.5-9.2,11.5-20.1c0-10.9-5.3-20.1-11.5-20.1
		c-2.8,0-5.5,1.9-7.8,5.2l-1.7-1.1c2.6-4,6-6.2,9.4-6.2c7.4,0,13.5,9.9,13.5,22.1C38.8,37.8,32.7,47.7,25.3,47.7z"></path><rect x="24.3" y="4.2" width="2" height="42.8"></rect><rect x="20.3" y="13.4" width="23.4" height="2"></rect><rect x="19.6" y="24.6" width="27.4" height="2"></rect><rect x="7" y="35.7" width="36.7" height="2"></rect><g><path d="M6.6,28.2c-1,0-2-0.4-2.8-1.1c-1.3-1.3-1.5-3.2-0.6-4.7L2,21.2c-1.3-1.3-2-3-2-4.9s0.7-3.6,2-4.9c1.3-1.3,3-2,4.9-2
			s3.6,0.7,4.9,2l1.4,1.4c0.4-0.1,1-0.3,1.7-0.3c1,0,1.9,0.3,2.6,1c1.5,1.5,1.5,3.9,0,5.5l-8.1,8C8.6,27.8,7.6,28.2,6.6,28.2z
			 M6.9,11.5c-1.3,0-2.6,0.5-3.5,1.4C2.5,13.8,2,15.1,2,16.4s0.5,2.5,1.4,3.4l2.5,2.5L5.2,23c-0.7,0.8-0.8,2,0,2.7
			c0.7,0.7,2,0.7,2.7,0l8.1-8c0.7-0.8,0.7-2,0-2.7c-0.3-0.3-0.7-0.4-1.2-0.4c-0.8,0-1.5,0.3-1.5,0.3l-0.6,0.3l-2.3-2.3
			C9.5,12,8.2,11.5,6.9,11.5z"></path><path d="M2.1,12.9c-0.7-0.7-1.4-1.5-1.6-2.7l0-0.1c0-0.9,0.2-1.7,0.7-2.6c1.5-2.7,4.6-4.2,7.7-3.9c0.8,0.1,1.6,0.3,2.4,0.5
			c1.1,0.3,2.2,0.6,3.1,0.4c0.8-0.2,1.4-0.6,1.8-1.2c0.4-0.6,0.6-1.4,0.5-2.1l2-0.4c0.5,2.5-1.3,5.2-3.8,5.7c-1.4,0.4-2.8,0-4.1-0.4
			C10,5.9,9.4,5.7,8.7,5.6C6.4,5.3,4.1,6.5,3,8.5c-0.3,0.6-0.5,1-0.5,1.5c0.1,0.5,0.4,0.9,1,1.5L2.1,12.9z"></path><g><rect x="8.7" y="26.4" transform="matrix(0.7071 0.7072 -0.7072 0.7071 22.6569 0.1065)" width="5.1" height="2"></rect><rect x="10.9" y="24.3" transform="matrix(0.7072 0.7071 -0.7071 0.7072 21.8126 -2.0658)" width="5.1" height="2"></rect><rect x="13.1" y="22.1" transform="matrix(0.7071 0.7072 -0.7072 0.7071 20.9052 -4.2645)" width="5.1" height="2"></rect><rect x="15.3" y="19.9" transform="matrix(0.7071 0.7071 -0.7071 0.7071 19.9921 -6.465)" width="5.1" height="2"></rect></g></g></g></svg>