<svg version="1.1" id="Layer_1" xmlns="http://www.w3.org/2000/svg" xmlns:xlink="http://www.w3.org/1999/xlink" x="0px" y="0px" viewBox="0 0 48 48" enable-background="new 0 0 48 48" xml:space="preserve" focusable="false" aria-hidden="true" role="none" class="roomsIcon tile-icon-stroke ng-isolate-scope  replaced-svg" data-url="/assets/hotel/default/media/iconography/icon/bed_v2.svg"><g><path fill="currentColor" d="M43.7,39.1H4.3V25.4h39.4V39.1z M6.3,37.1h35.4v-9.7H6.3V37.1z"></path><path fill="currentColor" d="M48,35.3h-6.3v-8H6.3v8H0V14l0.3-0.3c6.3-5.8,14.7-9,23.7-9c8.9,0,17.3,3.2,23.7,9L48,14V35.3z M43.7,33.3
		H46V14.8c-5.9-5.3-13.7-8.2-22-8.2S7.9,9.5,2,14.8v18.5h2.3v-8h39.4V33.3z"></path><g><rect x="7.8" y="38.1" fill="currentColor" width="2" height="4.3"></rect><rect x="38.2" y="38.1" fill="currentColor" width="2" height="4.3"></rect></g><g><path fill="currentColor" d="M22.7,27.4H6.4v-3.9c0-2.9,2.5-5.4,5.4-5.4h5.5c3,0,5.4,2.4,5.4,5.4V27.4z M8.4,25.4h12.3v-1.9
			c0-1.9-1.5-3.4-3.4-3.4h-5.5c-1.8,0-3.4,1.6-3.4,3.4V25.4z"></path><path fill="currentColor" d="M41.6,27.4H25.3v-3.9c0-3,2.4-5.4,5.4-5.4h5.5c2.9,0,5.4,2.5,5.4,5.4V27.4z M27.3,25.4h12.3v-1.9
			c0-1.8-1.6-3.4-3.4-3.4h-5.5c-1.8,0-3.4,1.6-3.4,3.4V25.4z"></path></g></g></svg>