<?xml version="1.0" encoding="utf-8"?>
<!-- Generator: Adobe Illustrator 18.0.0, SVG Export Plug-In . SVG Version: 6.00 Build 0)  -->
<!DOCTYPE svg PUBLIC "-//W3C//DTD SVG 1.1//EN" "http://www.w3.org/Graphics/SVG/1.1/DTD/svg11.dtd">
<svg version="1.1" id="Layer_1" xmlns="http://www.w3.org/2000/svg" xmlns:xlink="http://www.w3.org/1999/xlink" x="0px" y="0px"
	 viewBox="0 0 48 48" enable-background="new 0 0 48 48" xml:space="preserve">
<g>
	<g>
		<path fill="#010101" d="M43.1,27.5c0.9,0,1.5,0.1,1.9,0.3c-0.2,2.4-2.4,8.7-4.7,14.3H7.7c-1.1-1.1-2.3-4.4-3.4-8.2
			c3,1.6,6.8,2.4,11,2.4c5.9,0,11.8-1.7,16.6-4.6C37.5,28.2,41,27.5,43.1,27.5 M43.1,25.5c-2.5,0-6.5,0.9-12.2,4.5
			c-4.7,2.9-10.4,4.3-15.6,4.3c-6.2,0-11.7-2-14.3-5.9c0,0,2.5,13.4,6,15.6h34.6c0,0,6.2-14.2,5.3-17.5
			C46.9,26.5,45.8,25.5,43.1,25.5L43.1,25.5z"/>
	</g>
	<rect x="9.3" y="46" fill="#010101" width="5.1" height="2"/>
	<rect x="32.3" y="46" fill="#010101" width="5" height="2"/>
	<path fill="#010101" d="M42.7,25.5h-2V8c-1.1-1.4-6.8-8.1-11.6-5.4l-1-1.7C35-3,42.2,6.7,42.5,7.1c0.1,0.2,0.2,0.4,0.2,0.6V25.5z"
		/>
	<path fill="#010101" d="M29.3,7.2c-1.9,0-3.5-1.5-3.5-3.3c0-1.8,1.6-3.3,3.5-3.3s3.5,1.5,3.5,3.3C32.8,5.7,31.2,7.2,29.3,7.2z
		 M29.3,2.6c-0.8,0-1.5,0.6-1.5,1.3s0.7,1.3,1.5,1.3s1.5-0.6,1.5-1.3S30.1,2.6,29.3,2.6z"/>
	<path fill="#010101" d="M16.5,28.1l-1.8-0.9l1.4-2.7l1.8,0.9L16.5,28.1z M19.2,22.7l-1.8-0.9l1.4-2.7l1.8,0.9L19.2,22.7z M22,17.4
		l-1.8-0.9l1.4-2.7l1.8,0.9L22,17.4z M24.8,12.1L23,11.1l0.4-0.8l1.8,0.9L24.8,12.1z"/>
	<path fill="#010101" d="M24.2,30.3l-1.9-0.5l0.3-1l1.9,0.5L24.2,30.3z M25.2,26.4l-1.9-0.5l0.7-2.9l1.9,0.5L25.2,26.4z M26.6,20.6
		l-1.9-0.5l0.7-2.9l1.9,0.5L26.6,20.6z M28,14.8l-1.9-0.5l0.7-2.9l1.9,0.5L28,14.8z"/>
	<g>
		<path fill="#010101" d="M31.3,26.9l-2-0.1l0.2-3l2,0.1L31.3,26.9z M31.7,20.9l-2-0.1l0.2-3l2,0.1L31.7,20.9z M32,15l-2-0.1l0.2-3
			l2,0.1L32,15z"/>
	</g>
</g>
</svg>
