<svg version="1.1" id="Layer_1" xmlns="http://www.w3.org/2000/svg" xmlns:xlink="http://www.w3.org/1999/xlink" x="0px" y="0px" viewBox="0 0 48 48" enable-background="new 0 0 48 48" xml:space="preserve" focusable="false" aria-hidden="true" role="none" class="room-accomodation-svg-inject Icon-img ng-isolate-scope  replaced-svg" data-url="/assets/hotel/default/media/iconography/icon/shower.svg"><g><path fill="currentColor" d="M32.8,28.4H0.2V27c0-9,7.3-16.3,16.3-16.3c9,0,16.3,7.3,16.3,16.3V28.4z M2.2,26.4h28.6
		c-0.3-7.6-6.6-13.7-14.3-13.7C8.8,12.7,2.5,18.8,2.2,26.4z"></path><path fill="currentColor" d="M32.9,35.2H0.2v-6h32.7V35.2z M2.2,33.2h28.7v-2H2.2V33.2z"></path><path fill="currentColor" d="M17.5,11.7l-2,0c0-0.2,0.1-6,5.2-9.3c5.5-3.7,14.4-3,26.5,1.9l-0.8,1.9C35.2,1.5,26.7,0.8,21.8,4
		C17.6,6.8,17.5,11.7,17.5,11.7z"></path><g><circle fill="currentColor" cx="7.9" cy="39.8" r="1.5"></circle><circle fill="currentColor" cx="16.5" cy="39.8" r="1.5"></circle><circle fill="currentColor" cx="25.2" cy="39.8" r="1.5"></circle><circle fill="currentColor" cx="12.2" cy="45.5" r="1.5"></circle><circle fill="currentColor" cx="20.8" cy="45.5" r="1.5"></circle></g></g></svg>