<svg version="1.1" id="Layer_1" xmlns="http://www.w3.org/2000/svg" xmlns:xlink="http://www.w3.org/1999/xlink" x="0px" y="0px" viewBox="0 0 48 48" enable-background="new 0 0 48 48" xml:space="preserve" focusable="false" aria-hidden="true" role="none" class="room-accomodation-svg-inject Icon-img ng-isolate-scope  replaced-svg" data-url="/assets/hotel/default/media/iconography/icon/cable_tv.svg"><g><path fill="currentColor" d="M42.2,30.2H5.9c-0.6,0-1-0.4-1-1V9.7c0-0.6,0.4-1,1-1h36.3c0.6,0,1,0.4,1,1v19.5
		C43.2,29.8,42.8,30.2,42.2,30.2z M6.9,28.2h34.3V10.7H6.9V28.2z"></path><path fill="currentColor" d="M24,38.8c-10.8,0-20.5-1.5-23.6-3.6C0.2,35,0,34.7,0,34.4V5.6c0-0.6,0.4-1,1-1h46c0.6,0,1,0.4,1,1v28.8
		c0,0.3-0.2,0.6-0.4,0.8C44.6,37.4,35.1,38.8,24,38.8z M2,33.8c2.8,1.5,11.1,3,22,3c11.1,0,19.3-1.4,22-3V6.6H2V33.8z"></path><g><rect x="14.7" y="32.1" fill="currentColor" width="3.3" height="2"></rect><rect x="19.8" y="32.1" fill="currentColor" width="3.3" height="2"></rect><rect x="24.9" y="32.1" fill="currentColor" width="3.3" height="2"></rect><rect x="30" y="32.1" fill="currentColor" width="3.3" height="2"></rect></g><rect x="8.6" y="41.4" fill="currentColor" width="30.8" height="2"></rect></g></svg>